<?xml version="1.0" encoding="UTF-8" standalone="no"?>
<!-- Created with Inkscape (http://www.inkscape.org/) -->

<svg
   xmlns:dc="http://purl.org/dc/elements/1.1/"
   xmlns:cc="http://creativecommons.org/ns#"
   xmlns:rdf="http://www.w3.org/1999/02/22-rdf-syntax-ns#"
   xmlns:svg="http://www.w3.org/2000/svg"
   xmlns="http://www.w3.org/2000/svg"
   xmlns:sodipodi="http://sodipodi.sourceforge.net/DTD/sodipodi-0.dtd"
   xmlns:inkscape="http://www.inkscape.org/namespaces/inkscape"
   width="210mm"
   height="297mm"
   id="svg2"
   version="1.1"
   inkscape:version="0.48.4 r9939"
   sodipodi:docname="Neues Dokument 1">
  <defs
     id="defs4" />
  <sodipodi:namedview
     id="base"
     pagecolor="#ffffff"
     bordercolor="#666666"
     borderopacity="1.0"
     inkscape:pageopacity="0.0"
     inkscape:pageshadow="2"
     inkscape:zoom="0.7"
     inkscape:cx="110.38676"
     inkscape:cy="569.58182"
     inkscape:document-units="px"
     inkscape:current-layer="layer4"
     showgrid="false"
     inkscape:window-width="1366"
     inkscape:window-height="719"
     inkscape:window-x="0"
     inkscape:window-y="0"
     inkscape:window-maximized="1" />
  <metadata
     id="metadata7">
    <rdf:RDF>
      <cc:Work
         rdf:about="">
        <dc:format>image/svg+xml</dc:format>
        <dc:type
           rdf:resource="http://purl.org/dc/dcmitype/StillImage" />
        <dc:title></dc:title>
      </cc:Work>
    </rdf:RDF>
  </metadata>
  <g
     inkscape:groupmode="layer"
     id="layer3"
     inkscape:label="Ebene#1">
    <g
       inkscape:groupmode="layer"
       id="layer5"
       inkscape:label="Ebene#3">
      <path
         sodipodi:type="arc"
         style="fill:#000000;stroke:none"
         id="path2995-7-51"
         sodipodi:cx="282.84271"
         sodipodi:cy="511.42551"
         sodipodi:rx="73.741135"
         sodipodi:ry="24.748737"
         d="m 356.58385,511.42551 a 73.741135,24.748737 0 1 1 -147.48227,0 73.741135,24.748737 0 1 1 147.48227,0 z"
         transform="matrix(0.64549754,0,0,1.8979592,102.79382,-432.47022)" />
    </g>
    <g
       inkscape:groupmode="layer"
       id="layer4"
       inkscape:label="Ebene#2">
      <path
         sodipodi:type="arc"
         style="fill:#f2f2f2;stroke:none"
         id="path2995-7-5"
         sodipodi:cx="282.84271"
         sodipodi:cy="511.42551"
         sodipodi:rx="73.741135"
         sodipodi:ry="24.748737"
         d="m 356.58385,511.42551 a 73.741135,24.748737 0 1 1 -147.48227,0 73.741135,24.748737 0 1 1 147.48227,0 z"
         transform="matrix(0.77905919,0,0,1.8979592,64.764346,-445.60219)" />
    </g>
    <path
       sodipodi:type="arc"
       style="fill:#000000;stroke:none"
       id="path2995-7"
       sodipodi:cx="282.84271"
       sodipodi:cy="511.42551"
       sodipodi:rx="73.741135"
       sodipodi:ry="24.748737"
       d="m 356.58385,511.42551 a 73.741135,24.748737 0 1 1 -147.48227,0 73.741135,24.748737 0 1 1 147.48227,0 z"
       transform="matrix(0.89207289,0,0,1.8979592,31.536548,-455.70372)" />
  </g>
  <g
     inkscape:groupmode="layer"
     id="layer2"
     inkscape:label="Ebene">
    <path
       sodipodi:type="arc"
       style="fill:#f2f2f2;stroke:none"
       id="path2995-4"
       sodipodi:cx="282.84271"
       sodipodi:cy="511.42551"
       sodipodi:rx="73.741135"
       sodipodi:ry="24.748737"
       d="m 356.58385,511.42551 a 73.741135,24.748737 0 1 1 -147.48227,0 73.741135,24.748737 0 1 1 147.48227,0 z"
       transform="matrix(1.0290592,0,0,1.8979592,-9.2293349,-468.8357)" />
  </g>
  <g
     inkscape:label="Ebene 1"
     inkscape:groupmode="layer"
     id="layer1">
    <path
       sodipodi:type="arc"
       style="fill:#000000;stroke:none"
       id="path2985"
       sodipodi:cx="281.42856"
       sodipodi:cy="335.21933"
       sodipodi:rx="127.14286"
       sodipodi:ry="128.57143"
       d="m 408.57142,335.21933 a 127.14286,128.57143 0 1 1 -254.28572,0 127.14286,128.57143 0 1 1 254.28572,0 z" />
    <rect
       style="fill:#000000;stroke:none"
       id="rect2993"
       width="151.52289"
       height="73.741135"
       x="206.07112"
       y="414.95593" />
    <path
       sodipodi:type="arc"
       style="fill:#000000;stroke:none"
       id="path2995"
       sodipodi:cx="282.84271"
       sodipodi:cy="511.42551"
       sodipodi:rx="73.741135"
       sodipodi:ry="24.748737"
       d="m 356.58385,511.42551 a 73.741135,24.748737 0 1 1 -147.48227,0 73.741135,24.748737 0 1 1 147.48227,0 z"
       transform="matrix(1.0290592,0,0,1.8979592,-9.2293307,-481.46259)" />
  </g>
</svg>
